<svg width="17" height="16" viewBox="0 0 17 16" fill="none" xmlns="http://www.w3.org/2000/svg">
<path d="M16.8415 0.580448V14.8437H13.0184L12.5773 13.8144C11.4009 14.7702 9.93046 15.2848 8.23946 15.2848C3.90167 15.2848 0.740234 12.1234 0.740234 7.63854C0.740234 3.22723 3.82815 0.0657959 8.23946 0.0657959C9.93046 0.0657959 11.4009 0.65397 12.5773 1.60975L13.0919 0.506927L16.8415 0.580448ZM12.1361 7.78558C12.1361 5.94754 10.8127 4.55062 8.90116 4.55062C7.06311 4.55062 5.66619 5.94754 5.66619 7.78558C5.66619 9.62363 6.98959 11.0205 8.90116 11.0205C10.8127 11.0205 12.1361 9.62363 12.1361 7.78558Z" fill="#333333"/>
</svg>
