<svg width="17" height="16" viewBox="0 0 17 16" fill="none" xmlns="http://www.w3.org/2000/svg">
<path d="M16.0832 7.63845C16.0832 8.07958 16.0097 8.52071 16.0097 8.96184H5.34902C5.6431 10.5793 6.74593 11.4616 8.28989 11.4616C9.46623 11.4616 10.422 10.9469 10.8631 10.1382H15.7891C14.7598 13.3731 11.8925 15.4318 8.28989 15.4318C3.80506 15.4318 0.496582 12.1968 0.496582 7.78549C0.496582 3.37419 3.80506 0.21275 8.28989 0.21275C12.9218 0.139228 16.0832 3.44771 16.0832 7.63845ZM5.42254 6.16801H11.2308C10.7896 4.7711 9.76032 3.96236 8.28989 3.96236C6.81945 3.96236 5.86367 4.7711 5.42254 6.16801Z" fill="#333333"/>
</svg>
