<svg width="17" height="21" viewBox="0 0 17 21" fill="none" xmlns="http://www.w3.org/2000/svg">
<path d="M16.3433 7.78558C16.3433 12.2704 13.2554 15.4318 8.84409 15.4318C7.5207 15.4318 6.34435 15.0642 5.38857 14.4761V20.1372H0.536133V0.580448H3.91813L4.50631 1.68327C5.68266 0.65397 7.22661 0.0657959 8.91761 0.0657959C13.2554 0.139318 16.3433 3.30075 16.3433 7.78558ZM11.4174 7.78558C11.4174 5.87402 10.094 4.55062 8.1824 4.55062C6.27083 4.55062 4.94744 5.94754 4.94744 7.78558C4.94744 9.69715 6.27083 11.0205 8.1824 11.0205C10.0204 11.0205 11.4174 9.62363 11.4174 7.78558Z" fill="#333333"/>
</svg>
